<svg xmlns="http://www.w3.org/2000/svg" xmlns:xlink="http://www.w3.org/1999/xlink" width="40.878" height="9.981" viewBox="0 0 40.878 9.981">
  <defs>
    <clipPath id="clip-path">
      <rect id="Rectangle_326" data-name="Rectangle 326" width="40.878" height="9.981" fill="none"/>
    </clipPath>
  </defs>
  <g id="Paypal" clip-path="url(#clip-path)">
    <path id="Path_3553" data-name="Path 3553" d="M149.349,27.6h-2.265a.315.315,0,0,0-.307.267l-.914,5.8a.186.186,0,0,0,.154.218h1.108a.315.315,0,0,0,.307-.267l.251-1.561a.315.315,0,0,1,.307-.267h.72a2.318,2.318,0,0,0,2.572-2.151,1.72,1.72,0,0,0-.291-1.464,2.173,2.173,0,0,0-1.65-.574m.259,2.119c-.121.809-.744.809-1.343.809h-.34l.243-1.512a.186.186,0,0,1,.186-.162h.154c.413,0,.793,0,.995.235s.154.348.113.631m6.5-.024h-1.084a.186.186,0,0,0-.186.162l-.049.3-.073-.113a1.546,1.546,0,0,0-1.278-.453,2.492,2.492,0,0,0-2.418,2.176,2.038,2.038,0,0,0,.4,1.666,1.618,1.618,0,0,0,1.367.55,2.07,2.07,0,0,0,1.488-.615l-.048.3a.186.186,0,0,0,.154.218h1a.315.315,0,0,0,.307-.267l.582-3.7a.186.186,0,0,0-.154-.218h-.032m-1.5,2.1a1.205,1.205,0,0,1-1.221,1.035.9.9,0,0,1-.728-.291.927.927,0,0,1-.17-.76,1.213,1.213,0,0,1,1.213-1.043.925.925,0,0,1,.72.291.938.938,0,0,1,.186.768m7.279-2.111h-1.092a.315.315,0,0,0-.259.138l-1.5,2.216-.639-2.127a.315.315,0,0,0-.3-.226h-1.068a.186.186,0,0,0-.178.251l1.2,3.518-1.124,1.593a.186.186,0,0,0,.154.3h1.084a.315.315,0,0,0,.259-.137l3.624-5.225a.186.186,0,0,0-.154-.3" transform="translate(-134.062 -25.368)" fill="#253b80"/>
    <path id="Path_3554" data-name="Path 3554" d="M348.749,27.6h-2.265a.315.315,0,0,0-.307.267l-.914,5.8a.186.186,0,0,0,.154.218h1.2a.218.218,0,0,0,.218-.186l.259-1.642a.315.315,0,0,1,.307-.267h.712a2.318,2.318,0,0,0,2.572-2.151,1.748,1.748,0,0,0-.291-1.464,2.16,2.16,0,0,0-1.65-.574M349,29.719c-.121.809-.744.809-1.343.809h-.34l.243-1.512a.186.186,0,0,1,.186-.162h.162c.4,0,.793,0,.995.235s.154.348.113.631m6.5-.024h-1.092a.186.186,0,0,0-.186.162l-.048.3-.073-.113a1.546,1.546,0,0,0-1.278-.453,2.492,2.492,0,0,0-2.418,2.176,2.038,2.038,0,0,0,.4,1.666,1.618,1.618,0,0,0,1.367.55,2.071,2.071,0,0,0,1.5-.623l-.049.3a.186.186,0,0,0,.154.218h1a.315.315,0,0,0,.307-.267l.582-3.7a.186.186,0,0,0-.162-.218h-.016m-1.5,2.111a1.205,1.205,0,0,1-1.221,1.035.9.9,0,0,1-.728-.291.927.927,0,0,1-.17-.76,1.213,1.213,0,0,1,1.213-1.043.858.858,0,0,1,.906,1.06m2.79-4.044-.93,5.9a.186.186,0,0,0,.154.218h.962a.316.316,0,0,0,.307-.259l.914-5.8a.186.186,0,0,0-.154-.218h-1.076a.186.186,0,0,0-.186.162" transform="translate(-317.335 -25.368)" fill="#179bd7"/>
    <path id="Path_3555" data-name="Path 3555" d="M6.354,13.5l.17-1.1H4.3L5.578,4.289A.105.105,0,0,1,5.683,4.2H8.789a2.774,2.774,0,0,1,2.111.639,1.456,1.456,0,0,1,.34.631,2.289,2.289,0,0,1,0,.874v.251l.17.1a1.221,1.221,0,0,1,.356.267,1.254,1.254,0,0,1,.283.639,2.71,2.71,0,0,1-.04.93,3.276,3.276,0,0,1-.38,1.051,2.168,2.168,0,0,1-.607.671,2.451,2.451,0,0,1-.817.364,4.052,4.052,0,0,1-1.019.121H8.943a.728.728,0,0,0-.72.615l-.016.1L7.9,13.38l-.016.073a.065.065,0,0,1-.016.04H6.354Z" transform="translate(-3.952 -3.86)" fill="#253b80"/>
    <path id="Path_3556" data-name="Path 3556" d="M30.934,31.4l-.032.178A3.253,3.253,0,0,1,27.3,34.4H26.4a.445.445,0,0,0-.437.372l-.461,2.96-.129.841a.235.235,0,0,0,.194.267h1.642a.388.388,0,0,0,.38-.324l.016-.081.307-1.925.016-.105a.388.388,0,0,1,.38-.332h.243A2.849,2.849,0,0,0,31.694,33.6a2.118,2.118,0,0,0-.324-1.86,1.545,1.545,0,0,0-.445-.34" transform="translate(-23.315 -28.86)" fill="#179bd7"/>
    <path id="Path_3557" data-name="Path 3557" d="M37.254,27.543a3.244,3.244,0,0,0-.4-.089,5.055,5.055,0,0,0-.8-.057H33.622a.388.388,0,0,0-.38.332l-.526,3.276-.016.1a.445.445,0,0,1,.437-.372h.914a3.259,3.259,0,0,0,3.6-2.823,1.673,1.673,0,0,0,.032-.178,2.176,2.176,0,0,0-.34-.146l-.089-.04" transform="translate(-30.055 -25.182)" fill="#222d65"/>
    <path id="Path_3558" data-name="Path 3558" d="M3.136,2.548a.388.388,0,0,1,.38-.332H5.951a5.055,5.055,0,0,1,.8.057,3.219,3.219,0,0,1,.493.113,2.208,2.208,0,0,1,.34.146A1.973,1.973,0,0,0,7.164.752,3.23,3.23,0,0,0,4.794,0H1.688a.445.445,0,0,0-.437.372L-.042,8.565a.267.267,0,0,0,.218.307H2.141l.477-3.049Z" transform="translate(0.042)" fill="#253b80"/>
  </g>
</svg>
