<svg id="Group_1362" data-name="Group 1362" xmlns="http://www.w3.org/2000/svg" xmlns:xlink="http://www.w3.org/1999/xlink" width="19.983" height="19.983" viewBox="0 0 19.983 19.983">
  <defs>
    <linearGradient id="linear-gradient" x1="-0.332" y1="0.552" x2="1.61" y2="0.552" gradientUnits="objectBoundingBox">
      <stop offset="0" stop-color="#005ab9"/>
      <stop offset="1" stop-color="#1e3764"/>
    </linearGradient>
    <linearGradient id="linear-gradient-2" x1="0.026" y1="0.571" x2="0.852" y2="0.571" gradientUnits="objectBoundingBox">
      <stop offset="0" stop-color="#fba900"/>
      <stop offset="1" stop-color="#ffd800"/>
    </linearGradient>
  </defs>
  <g id="Artboard11">
    <g id="Group_1307" data-name="Group 1307" transform="translate(0 0)">
      <path id="Path_3523" data-name="Path 3523" d="M0,11.118V1.908A1.91,1.91,0,0,1,1.908,0H18.075a1.91,1.91,0,0,1,1.908,1.908v9.21Z" fill="#ff4785"/>
    </g>
    <g id="Group_1308" data-name="Group 1308" transform="translate(0 11.118)">
      <path id="Path_3524" data-name="Path 3524" d="M0-443.667v6.957A1.91,1.91,0,0,0,1.908-434.8H18.075a1.91,1.91,0,0,0,1.908-1.908v-6.957Z" transform="translate(0 443.667)" fill="#fff"/>
    </g>
    <g id="Group_1309" data-name="Group 1309" transform="translate(4.989 1.727)">
      <path id="Path_3525" data-name="Path 3525" d="M-380.7-58.623a1.006,1.006,0,0,1-1.006-1.006,1.006,1.006,0,0,1,1.006-1.006,1.006,1.006,0,0,1,1.006,1.006,1.006,1.006,0,0,1-1.006,1.006m-5.52,0a1.006,1.006,0,0,1-1.006-1.006,1.006,1.006,0,0,1,1.006-1.006,1.006,1.006,0,0,1,1.006,1.006,1.006,1.006,0,0,1-1.006,1.006m5.52-3.248a2.231,2.231,0,0,0-1.3.419l-2,1.458a2.242,2.242,0,0,0-2.212-1.877,2.242,2.242,0,0,0-2.242,2.242,2.242,2.242,0,0,0,2.242,2.242,2.231,2.231,0,0,0,1.311-.424l2-1.453a2.242,2.242,0,0,0,2.212,1.876,2.242,2.242,0,0,0,2.242-2.242,2.242,2.242,0,0,0-2.242-2.242" transform="translate(388.467 61.871)" fill="#fff"/>
    </g>
    <g id="Group_1310" data-name="Group 1310" transform="translate(2.849 6.764)">
      <path id="Path_3526" data-name="Path 3526" d="M-439.061-65.034a.39.39,0,0,0-.387-.392.39.39,0,0,0-.387.392.39.39,0,0,0,.387.392.39.39,0,0,0,.387-.392m.52,0a.913.913,0,0,1-.906.917.913.913,0,0,1-.906-.917.913.913,0,0,1,.906-.917.913.913,0,0,1,.906.917m-3.626-.9h-.527l-.375.96-.4-.96h-.562l.715,1.6-.247.633h.527Zm4.7,0a.882.882,0,0,0-.331.066v-.068h-.519v1.816h.519v-.955a.316.316,0,0,1,.331-.333.322.322,0,0,1,.221.081.343.343,0,0,1,.1.263v.932h.52v-.932a.826.826,0,0,0-.837-.87m-7.278.857a.389.389,0,0,0-.384-.346.39.39,0,0,0-.387.392.39.39,0,0,0,.387.392.389.389,0,0,0,.384-.346Zm.519.957h-.519V-64.2a.891.891,0,0,1-.384.088.913.913,0,0,1-.906-.917.913.913,0,0,1,.906-.917.891.891,0,0,1,.384.088v-.075h.519Zm-2.488-.911a.39.39,0,0,0-.387-.392.39.39,0,0,0-.387.392.39.39,0,0,0,.387.392.39.39,0,0,0,.387-.392m.52,0a.913.913,0,0,1-.906.917.891.891,0,0,1-.395-.093v.5h-.519v-2.233h.519v.08a.89.89,0,0,1,.395-.093.913.913,0,0,1,.906.917m4.932-.392a.385.385,0,0,1,.323.177l.434-.289a.9.9,0,0,0-.757-.413.913.913,0,0,0-.906.917.913.913,0,0,0,.906.917.9.9,0,0,0,.753-.407l-.432-.293a.385.385,0,0,1-.322.174.39.39,0,0,1-.387-.392.39.39,0,0,1,.387-.392m7.008.392a.39.39,0,0,0-.387-.392.39.39,0,0,0-.387.392.39.39,0,0,0,.387.392.39.39,0,0,0,.387-.392m.523-.9v2.233h-.519v-.5a.891.891,0,0,1-.391.091.913.913,0,0,1-.906-.917.913.913,0,0,1,.906-.917.891.891,0,0,1,.391.091v-.078Zm-2.306-.812a.3.3,0,0,0-.3.306.3.3,0,0,0,.3.307.3.3,0,0,0,.3-.306.3.3,0,0,0-.3-.307m-.259.808h.519v1.819h-.519Z" transform="translate(448.013 66.75)" fill="#fff"/>
    </g>
    <g id="Group_1311" data-name="Group 1311" transform="translate(4.989 17.187)">
      <path id="Path_3527" data-name="Path 3527" d="M555.75,404.7c-.246,0-.372-.134-.372-.407v-.446h-.14v-.227h.14v-.229l.285-.014v.244h.229v.227h-.229v.442c0,.12.049.176.142.176a.5.5,0,0,0,.109-.012l.015.229a.792.792,0,0,1-.18.019m-.626-1.042-.054.225a.628.628,0,0,0-.233-.052c-.167,0-.258.118-.258.312,0,.213.095.322.273.322a.584.584,0,0,0,.229-.054l.045.229a.694.694,0,0,1-.3.06.553.553,0,0,1-.016-1.1.8.8,0,0,1,.312.062m-1.251.809v-.221a.69.69,0,0,0-.147-.017c-.095,0-.169.037-.169.134s.062.132.171.132a.323.323,0,0,0,.145-.029m-.173.233c-.283,0-.425-.138-.425-.324,0-.2.167-.324.415-.326a1.3,1.3,0,0,1,.184.017v-.049c0-.126-.072-.186-.211-.186a.722.722,0,0,0-.273.05l-.052-.223a1.023,1.023,0,0,1,.357-.062.4.4,0,0,1,.454.44v.574a1.034,1.034,0,0,1-.45.091m-.719,0c-.246,0-.372-.134-.372-.407v-.446h-.14v-.227h.14v-.229l.285-.014v.244h.229v.227h-.229v.442c0,.12.05.176.142.176a.5.5,0,0,0,.109-.012l.014.229a.791.791,0,0,1-.18.019m-1.584-.025v-.989a1.259,1.259,0,0,1,.467-.091c.3,0,.475.149.475.423v.656h-.285v-.636c0-.142-.066-.208-.192-.208a.433.433,0,0,0-.182.037v.807Zm-.679-.211c.147,0,.223-.122.223-.318s-.076-.316-.223-.316-.225.122-.225.316.081.318.225.318m0,.235a.554.554,0,1,1,.514-.553.5.5,0,0,1-.514.553m-.615-1.042-.054.225a.628.628,0,0,0-.233-.052c-.167,0-.258.118-.258.312,0,.213.095.322.273.322a.585.585,0,0,0,.229-.054l.045.229a.694.694,0,0,1-.3.06.553.553,0,0,1-.017-1.1.8.8,0,0,1,.312.062m-1.937,1.018v-.989a1.258,1.258,0,0,1,.466-.091c.3,0,.475.149.475.423v.656h-.285v-.636c0-.142-.066-.208-.192-.208a.433.433,0,0,0-.182.037v.807Zm-.477-.208v-.221a.69.69,0,0,0-.147-.017c-.095,0-.169.037-.169.134s.062.132.171.132a.323.323,0,0,0,.145-.029m-.173.233c-.283,0-.425-.138-.425-.324,0-.2.167-.324.415-.326a1.294,1.294,0,0,1,.184.017v-.049c0-.126-.072-.186-.211-.186a.723.723,0,0,0-.272.05l-.052-.223a1.021,1.021,0,0,1,.357-.062.4.4,0,0,1,.454.44v.574a1.035,1.035,0,0,1-.45.091m-1.3-.277h.177c.173,0,.275-.043.275-.18s-.087-.19-.25-.19h-.2Zm0-.592h.213a.161.161,0,0,0,.186-.182c0-.126-.1-.167-.237-.167h-.161Zm-.287.844v-1.445h.446c.324,0,.533.122.533.374a.336.336,0,0,1-.159.3.358.358,0,0,1,.213.345c0,.291-.213.427-.543.427Z" transform="translate(-545.925 -403.229)" fill="#1e3764"/>
    </g>
    <g id="Group_1312" data-name="Group 1312" transform="translate(9.99 14.453) rotate(90)">
      <path id="Path_3528" data-name="Path 3528" d="M0,5H2.01V3.014C2.01,1.507,1.007.753,0,0Z" transform="translate(0 0)" fill="url(#linear-gradient)"/>
    </g>
    <g id="Group_1313" data-name="Group 1313" transform="matrix(-0.711, 0.703, -0.703, -0.711, 15.999, 13.459)">
      <path id="Path_3529" data-name="Path 3529" d="M1.416,2.824c1.071,1.059,2.311.874,3.555.69L1.416,0,0,1.429Z" transform="translate(0 0)" fill="url(#linear-gradient-2)"/>
    </g>
  </g>
</svg>
