<svg id="Group_1321" data-name="Group 1321" xmlns="http://www.w3.org/2000/svg" width="33.058" height="26.385" viewBox="0 0 33.058 26.385">
  <path id="Path_3535" data-name="Path 3535" d="M245.341,29.013V27.178a1.091,1.091,0,0,0-1.15-1.164,1.135,1.135,0,0,0-1.028.521,1.078,1.078,0,0,0-.971-.521.971.971,0,0,0-.857.436v-.371H240.7v2.935h.643V27.385a.684.684,0,0,1,.714-.778c.436,0,.635.278.635.771v1.635h.643V27.385a.69.69,0,0,1,.714-.778c.421,0,.643.278.643.771v1.635Zm9.525-2.927h-1.042v-.893h-.643v.885h-.593v.585h.593V28c0,.678.264,1.085,1.014,1.085a1.5,1.5,0,0,0,.8-.228l-.186-.543a1.178,1.178,0,0,1-.564.164c-.321,0-.421-.193-.421-.493V26.664h1.042Zm5.434-.071a.864.864,0,0,0-.771.428v-.357H258.9v2.927h.635V27.37c0-.493.207-.757.628-.757a1.042,1.042,0,0,1,.4.071l.193-.6a1.364,1.364,0,0,0-.457-.079m-8.218.307a2.192,2.192,0,0,0-1.192-.307c-.743,0-1.221.357-1.221.935s.357.771,1.014.864l.3.043c.35.05.514.143.514.307s-.236.357-.671.357a1.564,1.564,0,0,1-.978-.307l-.293.493a2.114,2.114,0,0,0,1.271.378c.843,0,1.335-.4,1.335-.957s-.386-.785-1.021-.878l-.3-.043c-.278-.036-.5-.093-.5-.286s.207-.343.557-.343a1.885,1.885,0,0,1,.914.25Zm17.072-.307a.864.864,0,0,0-.771.428v-.357h-.628v2.927h.635V27.363c0-.493.207-.757.628-.757a1.043,1.043,0,0,1,.4.071l.193-.6a1.364,1.364,0,0,0-.457-.079m-8.211,1.535a1.481,1.481,0,0,0,1.564,1.535,1.535,1.535,0,0,0,1.057-.35l-.307-.514a1.285,1.285,0,0,1-.764.264.937.937,0,0,1,0-1.871,1.285,1.285,0,0,1,.764.264l.307-.514a1.535,1.535,0,0,0-1.057-.35A1.481,1.481,0,0,0,260.942,27.535Zm5.969,0V26.078h-.635v.357a1.114,1.114,0,0,0-.928-.428,1.537,1.537,0,0,0,0,3.07,1.114,1.114,0,0,0,.928-.428v.357h.635Zm-2.37,0a.887.887,0,1,1,.885.935.888.888,0,0,1-.885-.935m-7.69-1.528a1.431,1.431,0,0,0-1.457,1.535,1.457,1.457,0,0,0,1.5,1.535,1.778,1.778,0,0,0,1.2-.414l-.307-.464a1.4,1.4,0,0,1-.857.307.816.816,0,0,1-.878-.714h2.178c.007-.079.014-.157.014-.243a1.4,1.4,0,0,0-1.392-1.535Zm-.014.571a.729.729,0,0,1,.743.714h-1.514a.754.754,0,0,1,.778-.714Zm15.987.964V24.9h-.635v1.535a1.114,1.114,0,0,0-.928-.428,1.537,1.537,0,0,0,0,3.07,1.114,1.114,0,0,0,.928-.428v.357h.635Zm.743,1.2.071.014.057.043a.186.186,0,0,1,.043.057.178.178,0,0,1,0,.143.185.185,0,0,1-.043.057l-.057.043-.071.014a.193.193,0,0,1-.179-.114.186.186,0,0,1,.1-.243Zm0,.328.057-.014.043-.029a.143.143,0,0,0,0-.207l-.043-.029-.057-.014-.057.014a.143.143,0,0,0-.079.193l.029.043.05.029.057.014Zm.014-.236.05.014a.053.053,0,0,1,.007.079l-.043.014.057.064h-.043l-.05-.064h-.014v.064h-.036v-.164Zm-.043.029v.05h.064a.021.021,0,0,0,0-.036h-.021Zm-3.084-1.321a.887.887,0,1,1,.885.935.888.888,0,0,1-.885-.935m-21.52,0V26.078H248.3v.357a1.114,1.114,0,0,0-.921-.428,1.537,1.537,0,0,0,0,3.07,1.114,1.114,0,0,0,.928-.428v.357h.635Zm-2.37,0a.887.887,0,1,1,.885.935.888.888,0,0,1-.885-.935" transform="translate(-240.693 -2.727)" fill="#231f20"/>
  <rect id="Rectangle_316" data-name="Rectangle 316" width="8.942" height="16.062" transform="translate(12.062 2.186)" fill="#ff5f00"/>
  <path id="Path_3536" data-name="Path 3536" d="M12.585,10.216a10.2,10.2,0,0,1,3.908-8.031,10.217,10.217,0,1,0,0,16.062,10.2,10.2,0,0,1-3.908-8.031" transform="translate(0.04 0.001)" fill="#eb001b"/>
  <path id="Path_3537" data-name="Path 3537" d="M116.326,10.243A10.217,10.217,0,0,1,99.8,18.274a10.217,10.217,0,0,0,0-16.062,10.217,10.217,0,0,1,16.526,8.031" transform="translate(-83.268 -0.025)" fill="#f79e1b"/>
  <path id="Path_3538" data-name="Path 3538" d="M192.7,97.9v-.331h.132V97.5H192.5v.066h.132V97.9Zm.662,0v-.4h-.083l-.116.282-.116-.282h-.132v.4h.066v-.3l.116.265h.083l.116-.265v.3Z" transform="translate(-160.617 -81.355)" fill="#f79e1b"/>
</svg>
