<svg id="Group_1322" data-name="Group 1322" xmlns="http://www.w3.org/2000/svg" width="32.681" height="26.071" viewBox="0 0 32.681 26.071">
  <path id="Path_3543" data-name="Path 3543" d="M266.23,32.768l.076.015.061.045a.181.181,0,0,1,.046.212.2.2,0,0,1-.046.061l-.061.045-.076.015-.083-.015-.061-.045a.2.2,0,0,1-.045-.061.2.2,0,0,1,0-.152.2.2,0,0,1,.045-.061l.061-.045.083-.015m0,.349.061-.015.046-.03.03-.045a.159.159,0,0,0,0-.121l-.03-.045-.046-.03-.061-.015-.061.015-.045.03-.03.045a.159.159,0,0,0,0,.121l.03.045.045.03.061.015m.015-.243.053.015a.056.056,0,0,1,.008.083l-.046.015.061.068h-.045l-.053-.068h-.015v.068h-.038v-.182Zm-.045.038v.045h.068a.019.019,0,0,0,0-.03H266.2Zm-20.471.152V31.1a1.158,1.158,0,0,0-1.221-1.236,1.2,1.2,0,0,0-1.092.553,1.149,1.149,0,0,0-1.031-.553,1.023,1.023,0,0,0-.91.462v-.379H240.8v3.109h.682V31.328a.726.726,0,0,1,.758-.826c.462,0,.675.3.675.819v1.736h.682V31.328a.733.733,0,0,1,.758-.826c.447,0,.682.3.682.819v1.736Zm3.814-1.562V29.948h-.675v.379a1.174,1.174,0,0,0-.986-.455,1.632,1.632,0,0,0,0,3.26,1.194,1.194,0,0,0,.986-.455v.379h.675Zm-2.517,0a.942.942,0,1,1,.94.993.943.943,0,0,1-.94-.993m17-1.638a1.751,1.751,0,0,1,.667.129,1.622,1.622,0,0,1,.531.341,1.576,1.576,0,0,1,.349.516,1.729,1.729,0,0,1,0,1.3,1.577,1.577,0,0,1-.349.516,1.622,1.622,0,0,1-.531.341,1.842,1.842,0,0,1-1.334,0,1.607,1.607,0,0,1-.531-.341,1.585,1.585,0,0,1-.349-.516,1.729,1.729,0,0,1,0-1.3,1.559,1.559,0,0,1,.88-.857,1.751,1.751,0,0,1,.667-.129m0,.637a1.008,1.008,0,0,0-.387.076.918.918,0,0,0-.311.2.955.955,0,0,0-.2.318,1.13,1.13,0,0,0,0,.811.955.955,0,0,0,.2.318.91.91,0,0,0,.311.2,1.061,1.061,0,0,0,.773,0,.933.933,0,0,0,.311-.2.948.948,0,0,0,.2-.318,1.13,1.13,0,0,0,0-.811.948.948,0,0,0-.2-.318.933.933,0,0,0-.311-.2,1.008,1.008,0,0,0-.387-.076m-10.8,1a1.49,1.49,0,0,0-1.478-1.63,1.631,1.631,0,0,0,.038,3.26,1.855,1.855,0,0,0,1.274-.44l-.334-.5a1.478,1.478,0,0,1-.9.326.866.866,0,0,1-.933-.758H253.2c.008-.083.015-.167.015-.258m-2.32-.273a.8.8,0,0,1,.826-.758c.485,0,.713.273.789.758Zm5.459-1.031a2.343,2.343,0,0,0-1.266-.326c-.789,0-1.3.379-1.3.993s.379.819,1.077.917l.318.045c.372.053.546.152.546.326s-.25.379-.713.379a1.66,1.66,0,0,1-1.039-.326l-.318.531a2.254,2.254,0,0,0,1.35.4c.895,0,1.418-.425,1.418-1.016s-.409-.834-1.084-.933l-.318-.045c-.3-.038-.531-.1-.531-.3s.22-.364.591-.364a2,2,0,0,1,.971.265Zm2.957-.25h-1.092V29h-.682v.948h-.629v.622h.629v1.41c0,.72.281,1.152,1.084,1.152a1.592,1.592,0,0,0,.842-.243l-.2-.576a1.251,1.251,0,0,1-.6.174c-.341,0-.447-.2-.447-.523v-1.4h1.107Zm2.343-.076a.917.917,0,0,0-.819.455v-.379h-.667v3.109h.675V31.312c0-.516.22-.8.667-.8a1.1,1.1,0,0,1,.425.076l.2-.637a1.448,1.448,0,0,0-.485-.083" transform="translate(-237.261 -7.091)"/>
  <rect id="Rectangle_320" data-name="Rectangle 320" width="8.835" height="15.874" transform="translate(11.918 2.16)" fill="#7673c0"/>
  <path id="Path_3544" data-name="Path 3544" d="M12.451,10.094A10.079,10.079,0,0,1,16.3,2.159a10.1,10.1,0,1,0,0,15.871,10.079,10.079,0,0,1-3.845-7.936" transform="translate(0.04 0.001)" fill="#eb001b"/>
  <path id="Path_3545" data-name="Path 3545" d="M192.8,97.893v-.327h.131V97.5H192.6v.065h.131v.327Zm.654,0V97.5h-.1l-.115.262-.115-.262h-.131v.393h.065V97.6l.115.262h.082l.115-.262v.295Z" transform="translate(-161.08 -81.547)" fill="#00a1df"/>
  <path id="Path_3546" data-name="Path 3546" d="M116.229,10.121A10.1,10.1,0,0,1,99.9,18.056a10.1,10.1,0,0,0,0-15.871,10.1,10.1,0,0,1,16.329,7.936" transform="translate(-83.548 -0.026)" fill="#00a1df"/>
</svg>
